<?xml version="1.0" encoding="utf-8"?>
<!-- Generator: Adobe Illustrator 21.0.0, SVG Export Plug-In . SVG Version: 6.00 Build 0)  -->
<svg version="1.1" id="Layer_1" xmlns="http://www.w3.org/2000/svg" xmlns:xlink="http://www.w3.org/1999/xlink" x="0px" y="0px"
	 viewBox="0 0 100 125" style="enable-background:new 0 0 100 125;" xml:space="preserve">
<g>
	<path d="M69.8,22.3c-6.5-6.5-15.2-10.1-24.4-10.1c-9.2,0-17.9,3.6-24.4,10.1c-6.5,6.5-10.1,15.2-10.1,24.4
		c0,9.2,3.6,17.9,10.1,24.4c6.7,6.7,15.6,10.1,24.4,10.1c8,0,16.1-2.8,22.6-8.4l14.9,14.9c0.5,0.5,1.1,0.7,1.8,0.7s1.3-0.2,1.8-0.7
		c1-1,1-2.6,0-3.5L71.5,69.2C83.2,55.7,82.7,35.1,69.8,22.3z M66.3,67.5C54.8,79,36.1,79,24.6,67.5c-5.6-5.6-8.6-13-8.6-20.9
		s3.1-15.3,8.6-20.9s13-8.6,20.9-8.6s15.3,3.1,20.9,8.6C77.8,37.3,77.8,56,66.3,67.5z"/>
</g>
</svg>
