<svg xmlns="http://www.w3.org/2000/svg" width="23.856" height="22.799" viewBox="0 0 23.856 22.799">
  <path id="Symbol" d="M-7.353,3.352c.44.344,1,.226,1.665-.258L-.005-1.085,5.688,3.094c.666.483,1.214.6,1.665.258s.537-.881.269-1.654L5.376-5l5.736-4.114c.666-.473.935-.978.763-1.5s-.677-.784-1.5-.773l-7.036.054L1.2-18.058C.94-18.842.553-19.25-.005-19.25s-.935.408-1.192,1.192l-2.138,6.725-7.036-.054c-.827-.011-1.332.247-1.5.773s.1,1.031.763,1.5L-5.376-5-7.622,1.7C-7.89,2.471-7.793,3.019-7.353,3.352Z" transform="translate(11.93 19.25)"/>
</svg>
